<svg class="mx-auto mb-10" width="44" height="35" viewBox="0 0 44 35" fill="none" xmlns="http://www.w3.org/2000/svg"><path d="M1.62866 20.7085C3.16609 21.0221 4.57737 21.7808 5.68687 22.8903C6.79638 23.9998 7.55511 25.4111 7.86866 26.9485M1.62866 14.2285C4.87793 14.5899 7.9075 16.0462 10.2192 18.3579C12.531 20.6697 13.9873 23.6992 14.3487 26.9485M1.62866 7.74851V4.54851C1.62866 3.69982 1.9658 2.88589 2.56592 2.28577C3.16604 1.68565 3.97997 1.34851 4.82866 1.34851H30.4287C31.2774 1.34851 32.0913 1.68565 32.6914 2.28577C33.2915 2.88589 33.6287 3.69982 33.6287 4.54851V23.7485C33.6287 24.5972 33.2915 25.4111 32.6914 26.0113C32.0913 26.6114 31.2774 26.9485 30.4287 26.9485H20.8287M1.62866 26.9485H1.64466" stroke="white" stroke-width="2" stroke-linecap="round" stroke-linejoin="round"/></svg>