<svg width="1132" height="277" viewBox="0 0 1132 277" fill="none" xmlns="http://www.w3.org/2000/svg">
<path d="M0.999948 167.555L8.02046 165.119L15.041 194.848L22.0615 197.894L29.0821 166.279L36.1026 161.755L43.1231 174.806L50.1436 168.803L57.1642 144.207L64.1847 208.944L71.2052 196.588L78.2258 160.71L85.2463 172.457L92.2668 215.76L99.2874 161.842L106.308 152.937L113.328 221.068L120.349 213.585L127.369 202.36L134.39 197.546L141.411 153.459L148.431 182.26L155.452 198.358L162.472 125.529L169.493 149.283L176.513 170.021L183.534 148.79L190.554 220.343L197.575 167.642L204.595 120.279L211.616 130.459L218.636 174.516L225.657 159.782L232.677 180.143L239.698 169.354L246.718 177.446L253.739 148.703L260.759 179.331L267.78 204.245L274.801 228.87L281.821 221.068L288.842 194.732L295.862 108.764L302.883 127.646L309.903 156.07L316.924 120.018L323.944 161.987L330.965 130.72L337.985 149.196L345.006 150.472L352.026 151.284L359.047 141.307L366.067 108.967L373.088 93.9722L380.108 117.349L387.129 96.1475L394.15 131.068L401.17 83.6468L408.191 185.422L415.211 200.272L422.232 137.217L429.252 108.822L436.273 103.08L443.293 102.296L450.314 88.9546L457.334 99.222L464.355 135.796L471.375 92.203L478.396 121.932L485.416 81.9066L492.437 84.952L499.457 130.981L506.478 126.515L513.499 131.242L520.519 109.141L527.54 111.578L534.56 89.9987L541.581 101.223L548.601 86.2572L555.622 106.502L562.642 104.095L569.663 108.242L576.683 64.5622L583.704 72.0742L590.724 95.4515L597.745 88.1134L604.765 100.643L611.786 76.1348L618.806 97.8008L625.827 79.5283L632.848 78.7161L639.868 86.5472L646.596 92.058L653.617 77.2659L660.637 83.9079L667.658 77.3239L674.678 67.1145L681.699 96.4956L688.719 84.4589L695.74 87.1273L702.76 94.3203L709.781 72.9443L716.801 134.636L723.822 138.58L730.842 125.79L737.863 112.854L744.883 87.9394L751.904 117.146L758.925 76.5408L765.945 94.8134L772.966 189.888L779.986 157.085L787.007 100.179L794.027 91.7679L801.048 73.8145L808.068 130.401L815.089 131.677L822.109 113.289L829.13 69.3769L836.15 90.9268L843.171 114.362L850.191 96.0025L857.212 62.2419L864.232 55.3679L871.253 81.4425L878.274 69.1448L885.294 69.5219L892.315 79.0062L899.335 51.9455L906.356 48.465L913.376 89.5346L920.397 56.5861L927.417 66.5925L934.438 89.1866L941.458 106.473L948.479 118.423L955.499 73.9305L962.52 62.996L969.54 84.0819L976.561 132.606L983.581 102.934L990.602 109.025L997.623 111.375L1004.64 72.4803L1011.66 56.122L1018.68 62.6189L1025.7 66.0414L1032.73 49.5091L1039.75 35.4422L1046.77 85.4161L1053.79 139.102L1060.81 107.981L1067.83 78.1361L1074.85 88.6935L1081.87 50.0892L1088.89 16.6766L1095.91 1.5365L1102.93 8.32344L1109.95 33.6439L1116.97 45.9126L1123.99 38.5746L1131 17.1116" stroke="url(#paint0_linear_13062_5950)" stroke-width="2" stroke-linecap="round" stroke-linejoin="round"/>
<path opacity="0.2" d="M1.00003 234.47L8.02052 232.929L15.041 209.116L22.0616 211.044L29.0821 233.663L36.1026 230.799L43.1232 239.059L50.1437 235.259L57.1642 205.599L64.1847 260.662L71.2053 227.202L78.2258 230.139L85.2464 237.572L92.2669 180.227L99.2875 230.855L106.308 225.22L113.328 268.334L120.349 263.598L127.37 256.495L134.39 215.272L141.411 225.55L148.431 243.776L155.452 253.962L162.472 207.875L169.493 222.907L176.513 236.03L183.534 222.595L190.554 188.842L197.575 234.525L204.595 204.553L211.616 275.935L218.636 238.875L225.657 229.551L232.677 242.436L239.698 235.608L246.719 240.729L253.739 190.329L260.76 241.922L267.78 257.688L274.801 251.668L281.821 268.334L288.842 251.668L295.862 197.267L302.883 190.329L309.903 227.202L316.924 251.668L323.944 230.946L330.965 211.161L337.985 180.227L345.006 181.035L352.026 181.549L359.047 217.86L366.068 254.228L373.088 244.739L380.109 202.699L387.129 189.282L394.15 140.339L401.17 181.372L408.191 174.735L415.211 184.132L422.232 215.272L429.252 197.303L436.273 151.044L443.293 150.549L450.314 184.731L457.334 191.228L464.355 214.373L471.375 186.786L478.396 205.599L485.417 222.896L492.437 224.823L499.458 211.326L506.478 208.499L513.499 211.491L520.519 197.505L527.54 184.839L534.56 171.183L541.581 149.869L548.601 168.815L555.622 181.627L562.642 194.312L569.663 196.936L576.683 226.128L583.704 230.882L590.724 188.842L597.745 184.198L604.765 192.127L611.786 176.618L618.807 190.329L625.827 207.182L632.848 206.668L639.868 211.624L646.596 186.695L653.617 205.751L660.637 209.954L667.658 205.787L674.678 199.327L681.699 217.919L688.719 181.886L695.74 183.574L702.76 188.126L709.781 174.599L716.801 227.847L723.822 230.343L730.842 222.249L737.863 199.854L744.883 184.088L751.904 145.738L758.925 176.875L765.945 188.438L772.966 205.978L779.986 227.844L787.007 191.834L794.027 200.719L801.048 203.567L808.068 210.959L815.089 211.766L822.109 200.13L829.13 172.342L836.15 143.354L843.171 143.976L850.191 146.566L857.212 167.827L864.232 163.477L871.253 179.977L878.274 186.403L885.294 186.642L892.315 178.435L899.335 161.311L906.356 215.942L913.376 185.098L920.397 164.247L927.417 142.163L934.438 184.877L941.458 195.817L948.479 203.378L955.499 217.848L962.52 210.929L969.54 181.647L976.561 212.354L983.581 193.577L990.602 197.432L997.623 198.918L1004.64 174.306L1011.66 163.954L1018.68 168.065L1025.7 170.231L1032.73 159.769L1039.75 150.867L1046.77 182.491L1054.47 150.867L1060.81 196.771L1067.83 177.885L1074.85 184.565L1081.87 160.136L1091.96 211.766L1098.98 202.185L1106 206.48L1109.95 149.729L1116.97 157.493L1123.99 152.85L1131 139.268" stroke="url(#paint1_linear_13062_5950)" stroke-width="2" stroke-linecap="round" stroke-linejoin="round"/>
<g clip-path="url(#clip0_13062_5950)">
<rect x="123" y="172" width="42" height="42" rx="21" fill="#AEA8D6"/>
<g filter="url(#filter0_d_13062_5950)">
<g clip-path="url(#clip1_13062_5950)">
<path d="M154.15 194.33C155.286 190.558 155.986 184.11 151.21 179.7C147.56 176.33 137.7 175.99 134.27 183.34C133.697 184.567 134.48 186.49 136.02 186.42C136.625 186.392 137 188.31 137.35 189.5C136.86 194.33 132.494 194.419 130.28 198.11C127.55 202.66 130.91 209.38 138.96 209.38C147.01 209.38 151.625 202.717 154.15 194.33Z" fill="white"/>
<path d="M156.88 205.32C157.907 207.28 158.42 214.42 158.42 214.42H129.58C129.58 214.42 130.093 207.28 131.12 205.32C132.66 202.38 144 198.6 144 198.6C144 198.6 155.34 202.38 156.88 205.32Z" fill="#FF6EBC"/>
<path d="M147.36 200.28C147.36 200.28 145.573 201.26 143.929 201.26C142.284 201.26 140.64 200.28 140.64 200.28V197.2C140.286 197.256 139.928 197.277 139.57 197.264C136.212 197.263 134.946 192.372 135.6 186.42C136.02 186.42 137 186.42 138.4 184.46C138.05 187.19 142.11 186.77 143.65 184.6C142.88 187.19 144.91 188.94 146.66 187.89C150.092 185.831 150.863 192.108 147.36 192.16V200.28Z" fill="url(#paint2_linear_13062_5950)"/>
<path style="mix-blend-mode:multiply" opacity="0.6" d="M140.641 197.2C142.377 196.88 144.039 196.239 145.541 195.31C145.541 195.31 143.791 198.32 140.641 198.32V197.2Z" fill="url(#paint3_linear_13062_5950)"/>
<path d="M144.004 201.116C145.016 201.071 147.36 200.575 147.36 199.504V198.6C147.616 198.6 148.352 199.206 148.73 199.72C150.224 201.75 148.566 203.57 147.214 203.57C145.508 203.57 144.378 202.144 144 201.459C143.622 202.145 142.491 203.57 140.785 203.57C139.433 203.57 137.775 201.75 139.27 199.72C139.648 199.206 140.383 198.6 140.64 198.6V199.504C140.64 200.575 143.047 201.071 144.004 201.116Z" fill="url(#paint4_linear_13062_5950)"/>
</g>
</g>
</g>
<rect x="122.25" y="171.25" width="43.5" height="43.5" rx="21.75" stroke="#9FEF00" stroke-width="1.5"/>
<g clip-path="url(#clip2_13062_5950)">
<rect x="558" y="45" width="42" height="42" rx="21" fill="#F6A79C"/>
<g filter="url(#filter1_d_13062_5950)">
<g clip-path="url(#clip3_13062_5950)">
<path d="M586.386 64.9324C596.388 56.7389 586.948 49.2446 576.807 53.236C575.723 53.6631 572.716 51.9535 569.932 53.7545C568.136 54.9163 568.835 55.8268 568.135 56.7373C567.436 57.6478 564.739 57.5942 564.148 59.9584C563.799 61.359 564.767 62.8262 564.637 63.8804C564.508 64.9347 563.485 65.8849 563.437 67.2767C563.416 67.8645 563.51 68.4507 563.716 69.0019C563.921 69.553 564.234 70.0583 564.634 70.4888C565.035 70.9193 565.517 71.2667 566.052 71.511C566.587 71.7554 567.165 71.8919 567.753 71.9128C567.757 73.0749 568.211 74.1902 569.019 75.0255C569.827 75.8609 570.926 76.3517 572.088 76.3953C572.86 76.4224 574.814 76.4227 576.493 75.4096C580.702 72.8716 579.758 70.3622 586.386 64.9324Z" fill="#191711"/>
<path d="M576.002 74.1601C576.002 72.9001 575.959 66.6852 575.961 66.5802C572.502 67.0901 572.572 60.5101 576.072 62.1201C576.842 62.6101 579.012 62.1201 578.802 58.0601C582.582 62.1201 586.97 57.3847 587.347 61.2434C587.861 66.5123 587.344 72.0263 584.069 72.0267C583.711 72.0224 583.354 71.9867 583.002 71.9201V74.1601C583.002 75.5601 585.522 76.2601 585.522 76.2601C585.522 76.2601 581.169 80.3621 579.362 80.3394C577.555 80.3167 573.482 76.2601 573.482 76.2601C573.482 76.2601 576.002 75.5601 576.002 74.1601Z" fill="#544239"/>
<path d="M583.001 71.9194C581.264 71.5342 579.618 70.8164 578.154 69.8055C578.154 69.8055 579.362 72.7586 582.996 73.3189L583.001 71.9194Z" fill="#281106"/>
<path d="M592.382 80.4601C593.398 82.7171 593.922 89.5601 593.922 89.5601H565.082C565.082 89.5601 565.606 82.7171 566.622 80.4601C567.512 78.4828 573.375 76.2126 575.094 75.5601C576.086 76.67 577.508 77.3801 579.502 77.3801C581.496 77.3801 582.918 76.67 583.91 75.5601C585.629 76.2126 591.492 78.4828 592.382 80.4601Z" fill="url(#paint5_linear_13062_5950)"/>
<mask id="mask0_13062_5950" style="mask-type:alpha" maskUnits="userSpaceOnUse" x="565" y="75" width="29" height="15">
<path d="M592.382 80.4601C593.398 82.7171 593.922 89.5601 593.922 89.5601H565.082C565.082 89.5601 565.606 82.7171 566.622 80.4601C567.512 78.4828 573.375 76.2126 575.094 75.5601C576.086 76.67 577.508 77.3801 579.502 77.3801C581.496 77.3801 582.918 76.67 583.91 75.5601C585.629 76.2126 591.492 78.4828 592.382 80.4601Z" fill="url(#paint6_linear_13062_5950)"/>
</mask>
<g mask="url(#mask0_13062_5950)">
<path d="M592.662 88.16C592.662 87.9939 592.711 87.8314 592.804 87.6933C592.896 87.5552 593.027 87.4475 593.181 87.3839C593.334 87.3204 593.503 87.3037 593.666 87.3361C593.829 87.3685 593.979 87.4485 594.096 87.566C594.214 87.6835 594.294 87.8332 594.326 87.9961C594.358 88.1591 594.342 88.328 594.278 88.4814C594.215 88.6349 594.107 88.7661 593.969 88.8584C593.831 88.9507 593.668 89 593.502 89C593.279 89 593.066 88.9115 592.908 88.754C592.751 88.5964 592.662 88.3828 592.662 88.16V88.16ZM587.062 88.16C587.062 87.9939 587.111 87.8314 587.204 87.6933C587.296 87.5552 587.427 87.4475 587.581 87.3839C587.734 87.3204 587.903 87.3037 588.066 87.3361C588.229 87.3685 588.379 87.4485 588.496 87.566C588.614 87.6835 588.694 87.8332 588.726 87.9961C588.758 88.1591 588.742 88.328 588.678 88.4814C588.615 88.6349 588.507 88.7661 588.369 88.8584C588.231 88.9507 588.068 89 587.902 89C587.679 89 587.466 88.9115 587.308 88.754C587.151 88.5964 587.062 88.3828 587.062 88.16ZM581.462 88.16C581.462 87.9939 581.511 87.8314 581.604 87.6933C581.696 87.5552 581.827 87.4475 581.981 87.3839C582.134 87.3204 582.303 87.3037 582.466 87.3361C582.629 87.3685 582.779 87.4485 582.896 87.566C583.014 87.6835 583.094 87.8332 583.126 87.9961C583.158 88.1591 583.142 88.328 583.078 88.4814C583.015 88.6349 582.907 88.7661 582.769 88.8584C582.631 88.9507 582.468 89 582.302 89C582.079 89 581.866 88.9115 581.708 88.754C581.551 88.5964 581.462 88.3828 581.462 88.16ZM575.862 88.16C575.862 87.9939 575.911 87.8314 576.004 87.6933C576.096 87.5552 576.227 87.4475 576.381 87.3839C576.534 87.3204 576.703 87.3037 576.866 87.3361C577.029 87.3685 577.179 87.4485 577.296 87.566C577.414 87.6835 577.494 87.8332 577.526 87.9961C577.558 88.1591 577.542 88.328 577.478 88.4814C577.415 88.6349 577.307 88.7661 577.169 88.8584C577.031 88.9507 576.868 89 576.702 89C576.479 89 576.266 88.9115 576.108 88.754C575.951 88.5964 575.862 88.3828 575.862 88.16ZM570.262 88.16C570.262 87.9939 570.311 87.8314 570.404 87.6933C570.496 87.5552 570.627 87.4475 570.781 87.3839C570.934 87.3204 571.103 87.3037 571.266 87.3361C571.429 87.3685 571.579 87.4485 571.696 87.566C571.814 87.6835 571.894 87.8332 571.926 87.9961C571.958 88.1591 571.942 88.328 571.878 88.4814C571.815 88.6349 571.707 88.7661 571.569 88.8584C571.431 88.9507 571.268 89 571.102 89C570.879 89 570.666 88.9115 570.508 88.754C570.351 88.5964 570.262 88.3828 570.262 88.16ZM564.662 88.16C564.662 87.9939 564.711 87.8314 564.804 87.6933C564.896 87.5552 565.027 87.4475 565.181 87.3839C565.334 87.3204 565.503 87.3037 565.666 87.3361C565.829 87.3685 565.979 87.4485 566.096 87.566C566.214 87.6835 566.294 87.8332 566.326 87.9961C566.358 88.1591 566.342 88.328 566.278 88.4814C566.215 88.6349 566.107 88.7661 565.969 88.8584C565.831 88.9507 565.668 89 565.502 89C565.279 89 565.066 88.9115 564.908 88.754C564.751 88.5964 564.662 88.3828 564.662 88.16V88.16ZM589.862 85.36C589.862 85.1939 589.911 85.0315 590.004 84.8933C590.096 84.7552 590.227 84.6475 590.381 84.5839C590.534 84.5204 590.703 84.5037 590.866 84.5361C591.029 84.5685 591.179 84.6485 591.296 84.766C591.414 84.8835 591.494 85.0332 591.526 85.1961C591.558 85.3591 591.542 85.528 591.478 85.6814C591.415 85.8349 591.307 85.9661 591.169 86.0584C591.031 86.1507 590.868 86.2 590.702 86.2C590.479 86.2 590.266 86.1115 590.108 85.954C589.951 85.7964 589.862 85.5828 589.862 85.36ZM584.262 85.36C584.262 85.1939 584.311 85.0315 584.404 84.8933C584.496 84.7552 584.627 84.6475 584.781 84.5839C584.934 84.5204 585.103 84.5037 585.266 84.5361C585.429 84.5685 585.579 84.6485 585.696 84.766C585.814 84.8835 585.894 85.0332 585.926 85.1961C585.958 85.3591 585.942 85.528 585.878 85.6814C585.815 85.8349 585.707 85.9661 585.569 86.0584C585.431 86.1507 585.268 86.2 585.102 86.2C584.879 86.2 584.666 86.1115 584.508 85.954C584.351 85.7964 584.262 85.5828 584.262 85.36ZM578.662 85.36C578.662 85.1939 578.711 85.0315 578.804 84.8933C578.896 84.7552 579.027 84.6475 579.181 84.5839C579.334 84.5204 579.503 84.5037 579.666 84.5361C579.829 84.5685 579.979 84.6485 580.096 84.766C580.214 84.8835 580.294 85.0332 580.326 85.1961C580.358 85.3591 580.342 85.528 580.278 85.6814C580.215 85.8349 580.107 85.9661 579.969 86.0584C579.831 86.1507 579.668 86.2 579.502 86.2C579.279 86.2 579.066 86.1115 578.908 85.954C578.751 85.7964 578.662 85.5828 578.662 85.36V85.36ZM573.062 85.36C573.062 85.1939 573.111 85.0315 573.204 84.8933C573.296 84.7552 573.427 84.6475 573.581 84.5839C573.734 84.5204 573.903 84.5037 574.066 84.5361C574.229 84.5685 574.379 84.6485 574.496 84.766C574.614 84.8835 574.694 85.0332 574.726 85.1961C574.758 85.3591 574.742 85.528 574.678 85.6814C574.615 85.8349 574.507 85.9661 574.369 86.0584C574.231 86.1507 574.068 86.2 573.902 86.2C573.679 86.2 573.466 86.1115 573.308 85.954C573.151 85.7964 573.062 85.5828 573.062 85.36ZM567.462 85.36C567.462 85.1939 567.511 85.0315 567.604 84.8933C567.696 84.7552 567.827 84.6475 567.981 84.5839C568.134 84.5204 568.303 84.5037 568.466 84.5361C568.629 84.5685 568.779 84.6485 568.896 84.766C569.014 84.8835 569.094 85.0332 569.126 85.1961C569.158 85.3591 569.142 85.528 569.078 85.6814C569.015 85.8349 568.907 85.9661 568.769 86.0584C568.631 86.1507 568.468 86.2 568.302 86.2C568.079 86.2 567.866 86.1115 567.708 85.954C567.551 85.7964 567.462 85.5828 567.462 85.36ZM592.662 82.56C592.662 82.3939 592.711 82.2315 592.804 82.0933C592.896 81.9552 593.027 81.8475 593.181 81.7839C593.334 81.7204 593.503 81.7037 593.666 81.7361C593.829 81.7685 593.979 81.8485 594.096 81.966C594.214 82.0835 594.294 82.2332 594.326 82.3961C594.358 82.5591 594.342 82.728 594.278 82.8814C594.215 83.0349 594.107 83.1661 593.969 83.2584C593.831 83.3507 593.668 83.4 593.502 83.4C593.279 83.4 593.066 83.3115 592.908 83.154C592.751 82.9964 592.662 82.7828 592.662 82.56V82.56ZM587.062 82.56C587.062 82.3939 587.111 82.2315 587.204 82.0933C587.296 81.9552 587.427 81.8475 587.581 81.7839C587.734 81.7204 587.903 81.7037 588.066 81.7361C588.229 81.7685 588.379 81.8485 588.496 81.966C588.614 82.0835 588.694 82.2332 588.726 82.3961C588.758 82.5591 588.742 82.728 588.678 82.8814C588.615 83.0349 588.507 83.1661 588.369 83.2584C588.231 83.3507 588.068 83.4 587.902 83.4C587.679 83.4 587.466 83.3115 587.308 83.154C587.151 82.9964 587.062 82.7828 587.062 82.56ZM581.462 82.56C581.462 82.3939 581.511 82.2315 581.604 82.0933C581.696 81.9552 581.827 81.8475 581.981 81.7839C582.134 81.7204 582.303 81.7037 582.466 81.7361C582.629 81.7685 582.779 81.8485 582.896 81.966C583.014 82.0835 583.094 82.2332 583.126 82.3961C583.158 82.5591 583.142 82.728 583.078 82.8814C583.015 83.0349 582.907 83.1661 582.769 83.2584C582.631 83.3507 582.468 83.4 582.302 83.4C582.079 83.4 581.866 83.3115 581.708 83.154C581.551 82.9964 581.462 82.7828 581.462 82.56ZM575.862 82.56C575.862 82.3939 575.911 82.2315 576.004 82.0933C576.096 81.9552 576.227 81.8475 576.381 81.7839C576.534 81.7204 576.703 81.7037 576.866 81.7361C577.029 81.7685 577.179 81.8485 577.296 81.966C577.414 82.0835 577.494 82.2332 577.526 82.3961C577.558 82.5591 577.542 82.728 577.478 82.8814C577.415 83.0349 577.307 83.1661 577.169 83.2584C577.031 83.3507 576.868 83.4 576.702 83.4C576.479 83.4 576.266 83.3115 576.108 83.154C575.951 82.9964 575.862 82.7828 575.862 82.56ZM570.262 82.56C570.262 82.3939 570.311 82.2315 570.404 82.0933C570.496 81.9552 570.627 81.8475 570.781 81.7839C570.934 81.7204 571.103 81.7037 571.266 81.7361C571.429 81.7685 571.579 81.8485 571.696 81.966C571.814 82.0835 571.894 82.2332 571.926 82.3961C571.958 82.5591 571.942 82.728 571.878 82.8814C571.815 83.0349 571.707 83.1661 571.569 83.2584C571.431 83.3507 571.268 83.4 571.102 83.4C570.879 83.4 570.666 83.3115 570.508 83.154C570.351 82.9964 570.262 82.7828 570.262 82.56ZM564.662 82.56C564.662 82.3939 564.711 82.2315 564.804 82.0933C564.896 81.9552 565.027 81.8475 565.181 81.7839C565.334 81.7204 565.503 81.7037 565.666 81.7361C565.829 81.7685 565.979 81.8485 566.096 81.966C566.214 82.0835 566.294 82.2332 566.326 82.3961C566.358 82.5591 566.342 82.728 566.278 82.8814C566.215 83.0349 566.107 83.1661 565.969 83.2584C565.831 83.3507 565.668 83.4 565.502 83.4C565.279 83.4 565.066 83.3115 564.908 83.154C564.751 82.9964 564.662 82.7828 564.662 82.56V82.56ZM589.862 79.76C589.862 79.5939 589.911 79.4315 590.004 79.2933C590.096 79.1552 590.227 79.0475 590.381 78.9839C590.534 78.9204 590.703 78.9037 590.866 78.9361C591.029 78.9685 591.179 79.0485 591.296 79.166C591.414 79.2835 591.494 79.4332 591.526 79.5961C591.558 79.7591 591.542 79.928 591.478 80.0814C591.415 80.2349 591.307 80.3661 591.169 80.4584C591.031 80.5507 590.868 80.6 590.702 80.6C590.479 80.6 590.266 80.5115 590.108 80.354C589.951 80.1964 589.862 79.9828 589.862 79.76ZM584.262 79.76C584.262 79.5939 584.311 79.4315 584.404 79.2933C584.496 79.1552 584.627 79.0475 584.781 78.9839C584.934 78.9204 585.103 78.9037 585.266 78.9361C585.429 78.9685 585.579 79.0485 585.696 79.166C585.814 79.2835 585.894 79.4332 585.926 79.5961C585.958 79.7591 585.942 79.928 585.878 80.0814C585.815 80.2349 585.707 80.3661 585.569 80.4584C585.431 80.5507 585.268 80.6 585.102 80.6C584.879 80.6 584.666 80.5115 584.508 80.354C584.351 80.1964 584.262 79.9828 584.262 79.76ZM578.662 79.76C578.662 79.5939 578.711 79.4315 578.804 79.2933C578.896 79.1552 579.027 79.0475 579.181 78.9839C579.334 78.9204 579.503 78.9037 579.666 78.9361C579.829 78.9685 579.979 79.0485 580.096 79.166C580.214 79.2835 580.294 79.4332 580.326 79.5961C580.358 79.7591 580.342 79.928 580.278 80.0814C580.215 80.2349 580.107 80.3661 579.969 80.4584C579.831 80.5507 579.668 80.6 579.502 80.6C579.279 80.6 579.066 80.5115 578.908 80.354C578.751 80.1964 578.662 79.9828 578.662 79.76V79.76ZM573.062 79.76C573.062 79.5939 573.111 79.4315 573.204 79.2933C573.296 79.1552 573.427 79.0475 573.581 78.9839C573.734 78.9204 573.903 78.9037 574.066 78.9361C574.229 78.9685 574.379 79.0485 574.496 79.166C574.614 79.2835 574.694 79.4332 574.726 79.5961C574.758 79.7591 574.742 79.928 574.678 80.0814C574.615 80.2349 574.507 80.3661 574.369 80.4584C574.231 80.5507 574.068 80.6 573.902 80.6C573.679 80.6 573.466 80.5115 573.308 80.354C573.151 80.1964 573.062 79.9828 573.062 79.76ZM567.462 79.76C567.462 79.5939 567.511 79.4315 567.604 79.2933C567.696 79.1552 567.827 79.0475 567.981 78.9839C568.134 78.9204 568.303 78.9037 568.466 78.9361C568.629 78.9685 568.779 79.0485 568.896 79.166C569.014 79.2835 569.094 79.4332 569.126 79.5961C569.158 79.7591 569.142 79.928 569.078 80.0814C569.015 80.2349 568.907 80.3661 568.769 80.4584C568.631 80.5507 568.468 80.6 568.302 80.6C568.079 80.6 567.866 80.5115 567.708 80.354C567.551 80.1964 567.462 79.9828 567.462 79.76ZM592.662 76.96C592.662 76.7939 592.711 76.6315 592.804 76.4933C592.896 76.3552 593.027 76.2475 593.181 76.1839C593.334 76.1204 593.503 76.1037 593.666 76.1361C593.829 76.1685 593.979 76.2485 594.096 76.366C594.214 76.4835 594.294 76.6332 594.326 76.7961C594.358 76.9591 594.342 77.128 594.278 77.2814C594.215 77.4349 594.107 77.5661 593.969 77.6584C593.831 77.7507 593.668 77.8 593.502 77.8C593.279 77.8 593.066 77.7115 592.908 77.554C592.751 77.3964 592.662 77.1828 592.662 76.96V76.96ZM587.062 76.96C587.062 76.7939 587.111 76.6315 587.204 76.4933C587.296 76.3552 587.427 76.2475 587.581 76.1839C587.734 76.1204 587.903 76.1037 588.066 76.1361C588.229 76.1685 588.379 76.2485 588.496 76.366C588.614 76.4835 588.694 76.6332 588.726 76.7961C588.758 76.9591 588.742 77.128 588.678 77.2814C588.615 77.4349 588.507 77.5661 588.369 77.6584C588.231 77.7507 588.068 77.8 587.902 77.8C587.679 77.8 587.466 77.7115 587.308 77.554C587.151 77.3964 587.062 77.1828 587.062 76.96V76.96ZM570.262 76.96C570.262 76.7939 570.311 76.6315 570.404 76.4933C570.496 76.3552 570.627 76.2475 570.781 76.1839C570.934 76.1204 571.103 76.1037 571.266 76.1361C571.429 76.1685 571.579 76.2485 571.696 76.366C571.814 76.4835 571.894 76.6332 571.926 76.7961C571.958 76.9591 571.942 77.128 571.878 77.2814C571.815 77.4349 571.707 77.5661 571.569 77.6584C571.431 77.7507 571.268 77.8 571.102 77.8C570.879 77.8 570.666 77.7115 570.508 77.554C570.351 77.3964 570.262 77.1828 570.262 76.96V76.96ZM564.662 76.96C564.662 76.7939 564.711 76.6315 564.804 76.4933C564.896 76.3552 565.027 76.2475 565.181 76.1839C565.334 76.1204 565.503 76.1037 565.666 76.1361C565.829 76.1685 565.979 76.2485 566.096 76.366C566.214 76.4835 566.294 76.6332 566.326 76.7961C566.358 76.9591 566.342 77.128 566.278 77.2814C566.215 77.4349 566.107 77.5661 565.969 77.6584C565.831 77.7507 565.668 77.8 565.502 77.8C565.279 77.8 565.066 77.7115 564.908 77.554C564.751 77.3964 564.662 77.1828 564.662 76.96V76.96Z" fill="#111927"/>
</g>
</g>
</g>
</g>
<rect x="557.25" y="44.25" width="43.5" height="43.5" rx="21.75" stroke="#9FEF00" stroke-width="1.5"/>
<g clip-path="url(#clip4_13062_5950)">
<rect x="756" y="171" width="42" height="42" rx="21" fill="#111111"/>
<g filter="url(#filter2_d_13062_5950)">
<g clip-path="url(#clip5_13062_5950)">
<path d="M769.303 200.37C771.87 202.236 774.437 203.73 777.003 203.73C779.57 203.73 782.137 202.236 784.703 200.37C782.588 199.726 781.515 198.764 781.483 197.486C781.483 197.258 781.485 196.934 781.487 196.326C781.487 196.23 781.487 196.131 781.487 196.03C781.492 194.4 781.498 192.25 781.508 190.066C783.515 187.465 782.777 184.416 782.149 184.492C781.378 184.586 774.699 178.248 773.418 177.923C772.137 177.598 768.883 178.647 768.323 181.57C767.763 184.492 767.529 191.859 769.653 194.8C770.258 195.637 771.21 195.964 772.509 195.782C772.511 196.394 772.515 196.737 772.523 197.43C772.507 198.766 771.434 199.726 769.303 200.37Z" fill="url(#paint7_linear_13062_5950)"/>
<path d="M772.523 195.78C775.603 195.43 777.563 194.1 777.563 194.1C777.563 194.1 775.323 196.9 772.523 197.46V195.78Z" fill="#FC9F6A"/>
<path d="M782.533 190.11C783.498 187.79 787.363 183.066 784.031 180.126C782.911 174.666 776.723 175.27 772.593 176.53C769.818 177.377 767.721 179.05 767.273 177.79C764.473 180.126 765.876 182.41 767.721 183.066C769.397 183.661 772.229 184.256 777.046 183.696C777.907 183.595 777.726 186.231 778.186 186.516C778.876 186.943 779.411 184.256 781.302 185.062C783.194 185.869 782.071 189.611 780.041 189.611C779.341 189.611 778.991 191.536 780.881 192.446C782.253 193.12 781.907 191.617 782.533 190.11Z" fill="#DBDBDB"/>
<path d="M791.701 204.643C793.034 207.353 793.801 213.603 793.801 213.603H760.201C760.201 213.603 760.969 207.352 762.301 204.643C763.634 201.934 771.415 199.421 771.415 199.421C775.715 201.1 778.346 201.1 782.583 199.42C782.583 199.42 790.368 201.933 791.701 204.643Z" fill="white"/>
<path d="M777.98 200.4L778.68 213.28H775.32L776.02 200.4C776.02 200.4 776.674 199.7 777 199.7C777.327 199.7 777.98 200.4 777.98 200.4Z" fill="url(#paint8_linear_13062_5950)"/>
<path d="M778.139 203.017L775.938 201.745L776.02 200.4C776.455 199.933 776.782 199.7 777 199.7C777.217 199.7 777.544 199.933 777.98 200.4L778.139 203.017H778.139Z" fill="#645050"/>
<path d="M777.002 199.699L775.602 202.22L771.262 199.56L772.522 197.74L777.002 199.395L781.482 197.74L782.742 199.56L778.402 202.22L777.002 199.699Z" fill="white"/>
</g>
</g>
</g>
<rect x="755.25" y="170.25" width="43.5" height="43.5" rx="21.75" stroke="#9FEF00" stroke-width="1.5"/>
<defs>
<filter id="filter0_d_13062_5950" x="120.9" y="169.9" width="46.2" height="46.2" filterUnits="userSpaceOnUse" color-interpolation-filters="sRGB">
<feFlood flood-opacity="0" result="BackgroundImageFix"/>
<feColorMatrix in="SourceAlpha" type="matrix" values="0 0 0 0 0 0 0 0 0 0 0 0 0 0 0 0 0 0 127 0" result="hardAlpha"/>
<feOffset/>
<feGaussianBlur stdDeviation="1.05"/>
<feColorMatrix type="matrix" values="0 0 0 0 0 0 0 0 0 0 0 0 0 0 0 0 0 0 0.25 0"/>
<feBlend mode="normal" in2="BackgroundImageFix" result="effect1_dropShadow_13062_5950"/>
<feBlend mode="normal" in="SourceGraphic" in2="effect1_dropShadow_13062_5950" result="shape"/>
</filter>
<filter id="filter1_d_13062_5950" x="556.4" y="44.9" width="46.2" height="46.2" filterUnits="userSpaceOnUse" color-interpolation-filters="sRGB">
<feFlood flood-opacity="0" result="BackgroundImageFix"/>
<feColorMatrix in="SourceAlpha" type="matrix" values="0 0 0 0 0 0 0 0 0 0 0 0 0 0 0 0 0 0 127 0" result="hardAlpha"/>
<feOffset/>
<feGaussianBlur stdDeviation="1.05"/>
<feColorMatrix type="matrix" values="0 0 0 0 0 0 0 0 0 0 0 0 0 0 0 0 0 0 0.25 0"/>
<feBlend mode="normal" in2="BackgroundImageFix" result="effect1_dropShadow_13062_5950"/>
<feBlend mode="normal" in="SourceGraphic" in2="effect1_dropShadow_13062_5950" result="shape"/>
</filter>
<filter id="filter2_d_13062_5950" x="753.9" y="168.9" width="46.2" height="46.2" filterUnits="userSpaceOnUse" color-interpolation-filters="sRGB">
<feFlood flood-opacity="0" result="BackgroundImageFix"/>
<feColorMatrix in="SourceAlpha" type="matrix" values="0 0 0 0 0 0 0 0 0 0 0 0 0 0 0 0 0 0 127 0" result="hardAlpha"/>
<feOffset/>
<feGaussianBlur stdDeviation="1.05"/>
<feColorMatrix type="matrix" values="0 0 0 0 0 0 0 0 0 0 0 0 0 0 0 0 0 0 0.25 0"/>
<feBlend mode="normal" in2="BackgroundImageFix" result="effect1_dropShadow_13062_5950"/>
<feBlend mode="normal" in="SourceGraphic" in2="effect1_dropShadow_13062_5950" result="shape"/>
</filter>
<linearGradient id="paint0_linear_13062_5950" x1="-30.075" y1="1.53657" x2="958.708" y2="533.561" gradientUnits="userSpaceOnUse">
<stop stop-color="#9FEF00"/>
<stop offset="1" stop-color="#21EF00"/>
</linearGradient>
<linearGradient id="paint1_linear_13062_5950" x1="-30.075" y1="139.268" x2="677.87" y2="772.888" gradientUnits="userSpaceOnUse">
<stop stop-color="#9FEF00"/>
<stop offset="1" stop-color="#21EF00"/>
</linearGradient>
<linearGradient id="paint2_linear_13062_5950" x1="146.955" y1="187.618" x2="140.398" y2="202.014" gradientUnits="userSpaceOnUse">
<stop stop-color="#EB915E"/>
<stop offset="1" stop-color="#F5A571"/>
</linearGradient>
<linearGradient id="paint3_linear_13062_5950" x1="144.615" y1="195.876" x2="143.917" y2="198.825" gradientUnits="userSpaceOnUse">
<stop stop-color="#E68349"/>
<stop offset="1" stop-color="#F09960"/>
</linearGradient>
<linearGradient id="paint4_linear_13062_5950" x1="144" y1="198.6" x2="144" y2="203.57" gradientUnits="userSpaceOnUse">
<stop stop-color="#130027"/>
<stop offset="1" stop-color="#130017"/>
</linearGradient>
<linearGradient id="paint5_linear_13062_5950" x1="579.502" y1="75.5601" x2="579.502" y2="89.5601" gradientUnits="userSpaceOnUse">
<stop stop-color="#FECBB5"/>
<stop offset="1" stop-color="#FED4C4"/>
</linearGradient>
<linearGradient id="paint6_linear_13062_5950" x1="579.502" y1="75.5601" x2="579.502" y2="89.5601" gradientUnits="userSpaceOnUse">
<stop stop-color="#FECBB5"/>
<stop offset="1" stop-color="#FED4C4"/>
</linearGradient>
<linearGradient id="paint7_linear_13062_5950" x1="776.32" y1="177.866" x2="776.32" y2="203.73" gradientUnits="userSpaceOnUse">
<stop stop-color="#F7B186"/>
<stop offset="1" stop-color="#FFC299"/>
</linearGradient>
<linearGradient id="paint8_linear_13062_5950" x1="777" y1="199.7" x2="777" y2="213.28" gradientUnits="userSpaceOnUse">
<stop stop-color="#806A6A"/>
<stop offset="1" stop-color="#665654"/>
</linearGradient>
<clipPath id="clip0_13062_5950">
<rect x="123" y="172" width="42" height="42" rx="21" fill="white"/>
</clipPath>
<clipPath id="clip1_13062_5950">
<rect x="123" y="172" width="42" height="42" rx="21" fill="white"/>
</clipPath>
<clipPath id="clip2_13062_5950">
<rect x="558" y="45" width="42" height="42" rx="21" fill="white"/>
</clipPath>
<clipPath id="clip3_13062_5950">
<rect x="558.5" y="47" width="42" height="42" rx="21" fill="white"/>
</clipPath>
<clipPath id="clip4_13062_5950">
<rect x="756" y="171" width="42" height="42" rx="21" fill="white"/>
</clipPath>
<clipPath id="clip5_13062_5950">
<rect x="756" y="171" width="42" height="42" rx="21" fill="white"/>
</clipPath>
</defs>
</svg>
