<svg class="mx-auto mb-10" width="38" height="35" viewBox="0 0 38 35" fill="none" xmlns="http://www.w3.org/2000/svg"><path d="M24.3431 30.1485V4.54851C24.3431 3.69982 24.006 2.88589 23.4059 2.28577C22.8057 1.68565 21.9918 1.34851 21.1431 1.34851H14.7431C13.8944 1.34851 13.0805 1.68565 12.4804 2.28577C11.8803 2.88589 11.5431 3.69982 11.5431 4.54851V30.1485M5.14312 7.74851H30.7431C32.5104 7.74851 33.9431 9.1812 33.9431 10.9485V26.9485C33.9431 28.7158 32.5104 30.1485 30.7431 30.1485H5.14312C3.3758 30.1485 1.94312 28.7158 1.94312 26.9485V10.9485C1.94312 9.1812 3.3758 7.74851 5.14312 7.74851Z" stroke="white" stroke-width="2" stroke-linecap="round" stroke-linejoin="round"/></svg>