<svg width="20" height="20" viewBox="0 0 20 20" fill="none" xmlns="http://www.w3.org/2000/svg">
<path d="M13.2778 1.36751C13.154 1.04569 12.8448 0.833328 12.5 0.833328C12.1552 0.833328 11.846 1.04569 11.7222 1.36751L10.74 3.92119C10.4897 4.57206 10.411 4.75962 10.3034 4.91095C10.1955 5.06279 10.0628 5.19545 9.91095 5.30342C9.75962 5.41102 9.57206 5.48969 8.92119 5.74002L6.36751 6.72221C6.04569 6.84599 5.83333 7.15518 5.83333 7.49999C5.83333 7.8448 6.04569 8.154 6.36751 8.27778L8.92119 9.25997C9.57206 9.5103 9.75962 9.58897 9.91095 9.69657C10.0628 9.80454 10.1955 9.9372 10.3034 10.089C10.411 10.2404 10.4897 10.4279 10.74 11.0788L11.7222 13.6325C11.846 13.9543 12.1552 14.1667 12.5 14.1667C12.8448 14.1667 13.154 13.9543 13.2778 13.6325L14.26 11.0788C14.5103 10.4279 14.589 10.2404 14.6966 10.089C14.8045 9.9372 14.9372 9.80454 15.089 9.69657C15.2404 9.58897 15.4279 9.5103 16.0788 9.25997L18.6325 8.27778C18.9543 8.154 19.1667 7.8448 19.1667 7.49999C19.1667 7.15518 18.9543 6.84599 18.6325 6.72221L16.0788 5.74002C15.4279 5.48969 15.2404 5.41102 15.089 5.30342C14.9372 5.19545 14.8045 5.06279 14.6966 4.91095C14.589 4.75962 14.5103 4.57206 14.26 3.92119L13.2778 1.36751Z" fill="url(#paint0_linear_251_713)"/>
<path d="M6.16202 10.4606C6.02086 10.1783 5.7323 9.99999 5.41666 9.99999C5.10102 9.99999 4.81246 10.1783 4.6713 10.4606L4.01759 11.7681C3.78219 12.2389 3.71045 12.3744 3.62329 12.4874C3.53587 12.6009 3.43419 12.7025 3.32078 12.79C3.2077 12.8771 3.07222 12.9489 2.60141 13.1843L1.29398 13.838C1.01166 13.9791 0.833328 14.2677 0.833328 14.5833C0.833328 14.899 1.01166 15.1875 1.29398 15.3287L2.60141 15.9824C3.07222 16.2178 3.20771 16.2895 3.32078 16.3767C3.43419 16.4641 3.53587 16.5658 3.62329 16.6792C3.71045 16.7923 3.78219 16.9278 4.01759 17.3986L4.67131 18.706C4.81247 18.9883 5.10102 19.1667 5.41666 19.1667C5.73231 19.1667 6.02086 18.9883 6.16202 18.706L6.81573 17.3986C7.05114 16.9278 7.12287 16.7923 7.21003 16.6792C7.29745 16.5658 7.39913 16.4641 7.51254 16.3767C7.62562 16.2895 7.7611 16.2178 8.23191 15.9824L9.53934 15.3287C9.82166 15.1875 9.99999 14.899 9.99999 14.5833C9.99999 14.2677 9.82166 13.9791 9.53934 13.838L8.23191 13.1843C7.7611 12.9489 7.62562 12.8771 7.51254 12.79C7.39913 12.7025 7.29745 12.6009 7.21003 12.4874C7.12287 12.3744 7.05114 12.2389 6.81573 11.7681L6.16202 10.4606Z" fill="url(#paint1_linear_251_713)"/>
<defs>
<linearGradient id="paint0_linear_251_713" x1="2.29548" y1="6.98749" x2="16.3443" y2="8.17737" gradientUnits="userSpaceOnUse">
<stop stop-color="#9FEF00"/>
<stop offset="1" stop-color="#00EFE1"/>
</linearGradient>
<linearGradient id="paint1_linear_251_713" x1="2.29548" y1="6.98749" x2="16.3443" y2="8.17737" gradientUnits="userSpaceOnUse">
<stop stop-color="#9FEF00"/>
<stop offset="1" stop-color="#00EFE1"/>
</linearGradient>
</defs>
</svg>
