<svg width="1248" height="443" viewBox="0 0 1248 443" fill="none" xmlns="http://www.w3.org/2000/svg">
<g clip-path="url(#clip0_11041_28519)">
<path d="M1244.54 443.382H1248.2V439.722H1244.54V443.382Z" fill="#21262D"/>
<path d="M1171.33 443.382H1174.99V439.722H1171.33V443.382Z" fill="#21262D"/>
<path d="M1098.14 443.382H1101.8V439.722H1098.14V443.382Z" fill="#21262D"/>
<path d="M1024.95 443.382H1028.61V439.722H1024.95V443.382Z" fill="#21262D"/>
<path d="M951.748 443.382H955.408V439.722H951.748V443.382Z" fill="#21262D"/>
<path d="M878.553 443.382H882.213V439.722H878.553V443.382Z" fill="#21262D"/>
<path d="M805.355 443.382H809.015V439.722H805.355V443.382Z" fill="#21262D"/>
<path d="M732.16 443.382H735.82V439.722H732.16V443.382Z" fill="#21262D"/>
<path d="M658.963 443.382H662.623V439.722H658.963V443.382Z" fill="#21262D"/>
<path d="M585.766 443.382H589.426V439.722H585.766V443.382Z" fill="#21262D"/>
<path d="M512.57 443.382H516.23V439.722H512.57V443.382Z" fill="#21262D"/>
<path d="M439.373 443.382H443.033V439.722H439.373V443.382Z" fill="#21262D"/>
<path d="M366.176 443.382H369.836V439.722H366.176V443.382Z" fill="#21262D"/>
<path d="M292.98 443.382H296.64V439.722H292.98V443.382Z" fill="#21262D"/>
<path d="M219.783 443.382H223.443V439.722H219.783V443.382Z" fill="#21262D"/>
<path d="M146.588 443.382H150.248V439.722H146.588V443.382Z" fill="#21262D"/>
<path d="M73.3906 443.382H77.0505V439.722H73.3906V443.382Z" fill="#21262D"/>
<path d="M0.195313 443.382H3.85511V439.722H0.195312L0.195313 443.382Z" fill="#21262D"/>
<path d="M1244.54 370.185H1248.2V366.525H1244.54V370.185Z" fill="#21262D"/>
<path d="M1171.33 370.185H1174.99V366.525H1171.33V370.185Z" fill="#21262D"/>
<path d="M1098.14 370.185H1101.8V366.525H1098.14V370.185Z" fill="#21262D"/>
<path d="M1024.95 370.185H1028.61V366.525H1024.95V370.185Z" fill="#21262D"/>
<path d="M951.748 370.185H955.408V366.525H951.748V370.185Z" fill="#21262D"/>
<path d="M878.553 370.185H882.213V366.525H878.553V370.185Z" fill="#21262D"/>
<path d="M805.355 370.185H809.015V366.525H805.355V370.185Z" fill="#21262D"/>
<path d="M732.16 370.185H735.82V366.525H732.16V370.185Z" fill="#21262D"/>
<path d="M658.963 370.185H662.623V366.525H658.963V370.185Z" fill="#21262D"/>
<path d="M585.766 370.185H589.426V366.525H585.766V370.185Z" fill="#21262D"/>
<path d="M512.57 370.185H516.23V366.525H512.57V370.185Z" fill="#21262D"/>
<path d="M439.373 370.185H443.033V366.525H439.373V370.185Z" fill="#21262D"/>
<path d="M366.176 370.185H369.836V366.525H366.176V370.185Z" fill="#21262D"/>
<path d="M292.98 370.185H296.64V366.525H292.98V370.185Z" fill="#21262D"/>
<path d="M219.783 370.185H223.443V366.525H219.783V370.185Z" fill="#21262D"/>
<path d="M146.588 370.185H150.248V366.525H146.588V370.185Z" fill="#21262D"/>
<path d="M73.3906 370.185H77.0505V366.525H73.3906V370.185Z" fill="#21262D"/>
<path d="M0.195313 370.185H3.8551V366.525H0.195312L0.195313 370.185Z" fill="#21262D"/>
<path d="M1244.54 296.988H1248.2V293.328H1244.54V296.988Z" fill="#21262D"/>
<path d="M1171.33 296.988H1174.99V293.328H1171.33V296.988Z" fill="#21262D"/>
<path d="M1098.14 296.988H1101.8V293.328H1098.14V296.988Z" fill="#21262D"/>
<path d="M1024.95 296.988H1028.61V293.328H1024.95V296.988Z" fill="#21262D"/>
<path d="M951.748 296.988H955.408V293.328H951.748V296.988Z" fill="#21262D"/>
<path d="M878.553 296.988H882.213V293.328H878.553V296.988Z" fill="#21262D"/>
<path d="M805.355 296.988H809.015V293.328H805.355V296.988Z" fill="#21262D"/>
<path d="M732.16 296.988H735.82V293.328H732.16V296.988Z" fill="#21262D"/>
<path d="M658.963 296.988H662.623V293.328H658.963V296.988Z" fill="#21262D"/>
<path d="M585.766 296.988H589.426V293.328H585.766V296.988Z" fill="#21262D"/>
<path d="M512.57 296.988H516.23V293.328H512.57V296.988Z" fill="#21262D"/>
<path d="M439.373 296.988H443.033V293.328H439.373V296.988Z" fill="#21262D"/>
<path d="M366.176 296.988H369.836V293.328H366.176V296.988Z" fill="#21262D"/>
<path d="M292.98 296.988H296.64V293.328H292.98V296.988Z" fill="#21262D"/>
<path d="M219.783 296.988H223.443V293.328H219.783V296.988Z" fill="#21262D"/>
<path d="M146.588 296.988H150.248V293.328H146.588V296.988Z" fill="#21262D"/>
<path d="M73.3906 296.988H77.0505V293.328H73.3906V296.988Z" fill="#21262D"/>
<path d="M0.195313 296.988H3.8551V293.328H0.195312L0.195313 296.988Z" fill="#21262D"/>
<path d="M1244.54 223.793H1248.2V220.133H1244.54V223.793Z" fill="#21262D"/>
<path d="M1171.33 223.793H1174.99V220.133H1171.33V223.793Z" fill="#21262D"/>
<path d="M1098.14 223.793H1101.8V220.133H1098.14V223.793Z" fill="#21262D"/>
<path d="M1024.95 223.793H1028.61V220.133H1024.95V223.793Z" fill="#21262D"/>
<path d="M951.748 223.793H955.408V220.133H951.748V223.793Z" fill="#21262D"/>
<path d="M878.553 223.793H882.213V220.133H878.553V223.793Z" fill="#21262D"/>
<path d="M805.355 223.793H809.015V220.133H805.355V223.793Z" fill="#21262D"/>
<path d="M732.16 223.793H735.82V220.133H732.16V223.793Z" fill="#21262D"/>
<path d="M658.963 223.793H662.623V220.133H658.963V223.793Z" fill="#21262D"/>
<path d="M585.766 223.793H589.426V220.133H585.766V223.793Z" fill="#21262D"/>
<path d="M512.57 223.793H516.23V220.133H512.57V223.793Z" fill="#21262D"/>
<path d="M439.373 223.793H443.033V220.133H439.373V223.793Z" fill="#21262D"/>
<path d="M366.176 223.793H369.836V220.133H366.176V223.793Z" fill="#21262D"/>
<path d="M292.98 223.793H296.64V220.133H292.98V223.793Z" fill="#21262D"/>
<path d="M219.783 223.793H223.443V220.133H219.783V223.793Z" fill="#21262D"/>
<path d="M146.588 223.793H150.248V220.133H146.588V223.793Z" fill="#21262D"/>
<path d="M73.3906 223.793H77.0505V220.133H73.3906V223.793Z" fill="#21262D"/>
<path d="M0.195313 223.793H3.8551V220.133H0.195312L0.195313 223.793Z" fill="#21262D"/>
<path d="M1244.54 150.596H1248.2V146.936H1244.54V150.596Z" fill="#21262D"/>
<path d="M1171.33 150.596H1174.99V146.936H1171.33V150.596Z" fill="#21262D"/>
<path d="M1098.14 150.596H1101.8V146.936H1098.14V150.596Z" fill="#21262D"/>
<path d="M1024.95 150.596H1028.61V146.936H1024.95V150.596Z" fill="#21262D"/>
<path d="M951.748 150.596H955.408V146.936H951.748V150.596Z" fill="#21262D"/>
<path d="M878.553 150.596H882.213V146.936H878.553V150.596Z" fill="#21262D"/>
<path d="M805.355 150.596H809.015V146.936H805.355V150.596Z" fill="#21262D"/>
<path d="M732.16 150.596H735.82V146.936H732.16V150.596Z" fill="#21262D"/>
<path d="M658.963 150.596H662.623V146.936H658.963V150.596Z" fill="#21262D"/>
<path d="M585.766 150.596H589.426V146.936H585.766V150.596Z" fill="#21262D"/>
<path d="M512.57 150.596H516.23V146.936H512.57V150.596Z" fill="#21262D"/>
<path d="M439.373 150.596H443.033V146.936H439.373V150.596Z" fill="#21262D"/>
<path d="M366.176 150.596H369.836V146.936H366.176V150.596Z" fill="#21262D"/>
<path d="M292.98 150.596H296.64V146.936H292.98V150.596Z" fill="#21262D"/>
<path d="M219.783 150.596H223.443V146.936H219.783V150.596Z" fill="#21262D"/>
<path d="M146.588 150.596H150.248V146.936H146.588V150.596Z" fill="#21262D"/>
<path d="M73.3906 150.596H77.0505V146.936H73.3906V150.596Z" fill="#21262D"/>
<path d="M0.195313 150.596H3.8551V146.936H0.195312L0.195313 150.596Z" fill="#21262D"/>
<path d="M1244.54 77.3991H1248.2V73.7393H1244.54V77.3991Z" fill="#21262D"/>
<path d="M1171.33 77.3991H1174.99V73.7393H1171.33V77.3991Z" fill="#21262D"/>
<path d="M1098.14 77.3991H1101.8V73.7393H1098.14V77.3991Z" fill="#21262D"/>
<path d="M1024.95 77.3992H1028.61V73.7393H1024.95V77.3992Z" fill="#21262D"/>
<path d="M951.748 77.3992H955.408V73.7393H951.748V77.3992Z" fill="#21262D"/>
<path d="M878.553 77.3992H882.213V73.7393H878.553V77.3992Z" fill="#21262D"/>
<path d="M805.355 77.3992H809.015V73.7393H805.355V77.3992Z" fill="#21262D"/>
<path d="M732.16 77.3992H735.82V73.7393H732.16V77.3992Z" fill="#21262D"/>
<path d="M658.963 77.3992H662.623V73.7393H658.963V77.3992Z" fill="#21262D"/>
<path d="M585.766 77.3992H589.426V73.7393H585.766V77.3992Z" fill="#21262D"/>
<path d="M512.57 77.3992H516.23V73.7393H512.57V77.3992Z" fill="#21262D"/>
<path d="M439.373 77.3991H443.033V73.7393H439.373V77.3991Z" fill="#21262D"/>
<path d="M366.176 77.3991H369.836V73.7393H366.176V77.3991Z" fill="#21262D"/>
<path d="M292.98 77.3991H296.64V73.7393H292.98V77.3991Z" fill="#21262D"/>
<path d="M219.783 77.3991H223.443V73.7393H219.783V77.3991Z" fill="#21262D"/>
<path d="M146.588 77.3991H150.248V73.7393H146.588V77.3991Z" fill="#21262D"/>
<path d="M73.3906 77.3991H77.0505V73.7393H73.3906V77.3991Z" fill="#21262D"/>
<path d="M0.195313 77.3991H3.85511L3.8551 73.7393H0.195312L0.195313 77.3991Z" fill="#21262D"/>
<path d="M1244.54 4.20276H1248.2V0.542969H1244.54V4.20276Z" fill="#21262D"/>
<path d="M1171.33 4.20276H1174.99V0.542969H1171.33V4.20276Z" fill="#21262D"/>
<path d="M1098.14 4.20275H1101.8V0.542969L1098.14 0.54297V4.20275Z" fill="#21262D"/>
<path d="M1024.95 4.20276H1028.61V0.542969H1024.95V4.20276Z" fill="#21262D"/>
<path d="M951.748 4.20276H955.408V0.542969H951.748V4.20276Z" fill="#21262D"/>
<path d="M878.553 4.20275H882.213V0.542969H878.553V4.20275Z" fill="#21262D"/>
<path d="M805.355 4.20276H809.015V0.542969H805.355V4.20276Z" fill="#21262D"/>
<path d="M732.16 4.20276H735.82V0.542969L732.16 0.54297V4.20276Z" fill="#21262D"/>
<path d="M658.963 4.20276H662.623V0.542969H658.963V4.20276Z" fill="#21262D"/>
<path d="M585.766 4.20276H589.426V0.542969H585.766V4.20276Z" fill="#21262D"/>
<path d="M512.57 4.20276H516.23V0.542969H512.57V4.20276Z" fill="#21262D"/>
<path d="M439.373 4.20276H443.033V0.542969H439.373V4.20276Z" fill="#21262D"/>
<path d="M366.176 4.20276H369.836V0.542969L366.176 0.54297V4.20276Z" fill="#21262D"/>
<path d="M292.98 4.20276L296.64 4.20275V0.542969H292.98V4.20276Z" fill="#21262D"/>
<path d="M219.783 4.20276H223.443V0.542969H219.783V4.20276Z" fill="#21262D"/>
<path d="M146.588 4.20276H150.248V0.542969H146.588V4.20276Z" fill="#21262D"/>
<path d="M73.3906 4.20275H77.0505V0.542969H73.3906V4.20275Z" fill="#21262D"/>
<path d="M0.195313 4.20276H3.8551V0.542969L0.195312 0.54297L0.195313 4.20276Z" fill="#21262D"/>
<g opacity="0.4">
<path opacity="0.4" d="M73.3906 443.382H77.0505V439.722H73.3906V443.382Z" fill="url(#paint0_linear_11041_28519)"/>
<path opacity="0.4" d="M0.195313 443.381H3.8551V439.722H0.195312L0.195313 443.381Z" fill="url(#paint1_linear_11041_28519)"/>
<path opacity="0.4" d="M1098.14 370.186H1101.8V366.526H1098.14V370.186Z" fill="url(#paint2_linear_11041_28519)"/>
<path opacity="0.4" d="M73.3906 370.185H77.0505V366.525H73.3906V370.185Z" fill="url(#paint3_linear_11041_28519)"/>
<path opacity="0.4" d="M1098.14 296.988H1101.8V293.328H1098.14V296.988Z" fill="url(#paint4_linear_11041_28519)"/>
<path opacity="0.4" d="M0.195313 296.988H3.8551V293.329H0.195312L0.195313 296.988Z" fill="url(#paint5_linear_11041_28519)"/>
<path opacity="0.4" d="M1171.34 223.793H1175V220.133H1171.34V223.793Z" fill="url(#paint6_linear_11041_28519)"/>
<path opacity="0.4" d="M1098.14 223.793H1101.8V220.133H1098.14V223.793Z" fill="url(#paint7_linear_11041_28519)"/>
<path opacity="0.4" d="M0.195313 223.793H3.8551V220.133H0.195312L0.195313 223.793Z" fill="url(#paint8_linear_11041_28519)"/>
<path opacity="0.4" d="M1244.54 150.595H1248.2V146.935H1244.54V150.595Z" fill="url(#paint9_linear_11041_28519)"/>
<path opacity="0.4" d="M1098.14 150.595H1101.8V146.935H1098.14V150.595Z" fill="url(#paint10_linear_11041_28519)"/>
<path opacity="0.4" d="M73.3906 150.596H77.0505V146.937H73.3906V150.596Z" fill="url(#paint11_linear_11041_28519)"/>
<path opacity="0.4" d="M0.195313 150.596H3.8551V146.937H0.195312L0.195313 150.596Z" fill="url(#paint12_linear_11041_28519)"/>
<path opacity="0.4" d="M1098.14 77.3993H1101.8V73.7395H1098.14V77.3993Z" fill="url(#paint13_linear_11041_28519)"/>
<path opacity="0.4" d="M146.588 77.3991H150.248V73.7393H146.588V77.3991Z" fill="url(#paint14_linear_11041_28519)"/>
<path opacity="0.4" d="M73.3906 77.3991H77.0505V73.7393H73.3906V77.3991Z" fill="url(#paint15_linear_11041_28519)"/>
<path opacity="0.4" d="M1244.54 4.20282L1248.2 4.20281V0.542969H1244.54V4.20282Z" fill="url(#paint16_linear_11041_28519)"/>
<path opacity="0.4" d="M0.195313 4.20282H3.85511L3.8551 0.542969L0.195312 0.54297L0.195313 4.20282Z" fill="url(#paint17_linear_11041_28519)"/>
<path opacity="0.4" d="M951.986 150.595H955.645V146.935H951.986V150.595Z" fill="url(#paint18_linear_11041_28519)"/>
<path opacity="0.4" d="M292.98 150.596H296.64V146.937H292.98V150.596Z" fill="url(#paint19_linear_11041_28519)"/>
<path opacity="0.4" d="M219.785 150.596H223.445V146.937H219.785V150.596Z" fill="url(#paint20_linear_11041_28519)"/>
</g>
</g>
<defs>
<linearGradient id="paint0_linear_11041_28519" x1="1248.19" y1="673.633" x2="215.152" y2="555.907" gradientUnits="userSpaceOnUse">
<stop stop-color="#56D364"/>
<stop offset="1" stop-color="#79C0FF"/>
</linearGradient>
<linearGradient id="paint1_linear_11041_28519" x1="1248.2" y1="673.632" x2="215.153" y2="555.906" gradientUnits="userSpaceOnUse">
<stop stop-color="#56D364"/>
<stop offset="1" stop-color="#79C0FF"/>
</linearGradient>
<linearGradient id="paint2_linear_11041_28519" x1="1248.2" y1="673.633" x2="215.144" y2="555.905" gradientUnits="userSpaceOnUse">
<stop stop-color="#56D364"/>
<stop offset="1" stop-color="#79C0FF"/>
</linearGradient>
<linearGradient id="paint3_linear_11041_28519" x1="1248.19" y1="673.633" x2="215.152" y2="555.907" gradientUnits="userSpaceOnUse">
<stop stop-color="#56D364"/>
<stop offset="1" stop-color="#79C0FF"/>
</linearGradient>
<linearGradient id="paint4_linear_11041_28519" x1="1248.2" y1="673.633" x2="215.144" y2="555.904" gradientUnits="userSpaceOnUse">
<stop stop-color="#56D364"/>
<stop offset="1" stop-color="#79C0FF"/>
</linearGradient>
<linearGradient id="paint5_linear_11041_28519" x1="1248.2" y1="673.632" x2="215.153" y2="555.906" gradientUnits="userSpaceOnUse">
<stop stop-color="#56D364"/>
<stop offset="1" stop-color="#79C0FF"/>
</linearGradient>
<linearGradient id="paint6_linear_11041_28519" x1="1248.2" y1="673.633" x2="215.145" y2="555.905" gradientUnits="userSpaceOnUse">
<stop stop-color="#56D364"/>
<stop offset="1" stop-color="#79C0FF"/>
</linearGradient>
<linearGradient id="paint7_linear_11041_28519" x1="1248.2" y1="673.633" x2="215.144" y2="555.905" gradientUnits="userSpaceOnUse">
<stop stop-color="#56D364"/>
<stop offset="1" stop-color="#79C0FF"/>
</linearGradient>
<linearGradient id="paint8_linear_11041_28519" x1="1248.2" y1="673.633" x2="215.153" y2="555.907" gradientUnits="userSpaceOnUse">
<stop stop-color="#56D364"/>
<stop offset="1" stop-color="#79C0FF"/>
</linearGradient>
<linearGradient id="paint9_linear_11041_28519" x1="1248.2" y1="673.633" x2="215.144" y2="555.905" gradientUnits="userSpaceOnUse">
<stop stop-color="#56D364"/>
<stop offset="1" stop-color="#79C0FF"/>
</linearGradient>
<linearGradient id="paint10_linear_11041_28519" x1="1248.2" y1="673.633" x2="215.144" y2="555.905" gradientUnits="userSpaceOnUse">
<stop stop-color="#56D364"/>
<stop offset="1" stop-color="#79C0FF"/>
</linearGradient>
<linearGradient id="paint11_linear_11041_28519" x1="1248.19" y1="673.632" x2="215.152" y2="555.906" gradientUnits="userSpaceOnUse">
<stop stop-color="#56D364"/>
<stop offset="1" stop-color="#79C0FF"/>
</linearGradient>
<linearGradient id="paint12_linear_11041_28519" x1="1248.2" y1="673.632" x2="215.153" y2="555.906" gradientUnits="userSpaceOnUse">
<stop stop-color="#56D364"/>
<stop offset="1" stop-color="#79C0FF"/>
</linearGradient>
<linearGradient id="paint13_linear_11041_28519" x1="1248.2" y1="673.633" x2="215.144" y2="555.905" gradientUnits="userSpaceOnUse">
<stop stop-color="#56D364"/>
<stop offset="1" stop-color="#79C0FF"/>
</linearGradient>
<linearGradient id="paint14_linear_11041_28519" x1="1248.19" y1="673.632" x2="215.153" y2="555.906" gradientUnits="userSpaceOnUse">
<stop stop-color="#56D364"/>
<stop offset="1" stop-color="#79C0FF"/>
</linearGradient>
<linearGradient id="paint15_linear_11041_28519" x1="1248.19" y1="673.632" x2="215.152" y2="555.906" gradientUnits="userSpaceOnUse">
<stop stop-color="#56D364"/>
<stop offset="1" stop-color="#79C0FF"/>
</linearGradient>
<linearGradient id="paint16_linear_11041_28519" x1="1248.2" y1="673.632" x2="215.144" y2="555.904" gradientUnits="userSpaceOnUse">
<stop stop-color="#56D364"/>
<stop offset="1" stop-color="#79C0FF"/>
</linearGradient>
<linearGradient id="paint17_linear_11041_28519" x1="1248.2" y1="673.632" x2="215.153" y2="555.906" gradientUnits="userSpaceOnUse">
<stop stop-color="#56D364"/>
<stop offset="1" stop-color="#79C0FF"/>
</linearGradient>
<linearGradient id="paint18_linear_11041_28519" x1="1248.2" y1="673.633" x2="215.154" y2="555.907" gradientUnits="userSpaceOnUse">
<stop stop-color="#56D364"/>
<stop offset="1" stop-color="#79C0FF"/>
</linearGradient>
<linearGradient id="paint19_linear_11041_28519" x1="1248.2" y1="673.632" x2="215.152" y2="555.906" gradientUnits="userSpaceOnUse">
<stop stop-color="#56D364"/>
<stop offset="1" stop-color="#79C0FF"/>
</linearGradient>
<linearGradient id="paint20_linear_11041_28519" x1="1248.19" y1="673.632" x2="215.154" y2="555.907" gradientUnits="userSpaceOnUse">
<stop stop-color="#56D364"/>
<stop offset="1" stop-color="#79C0FF"/>
</linearGradient>
<clipPath id="clip0_11041_28519">
<rect width="1248" height="443" fill="white"/>
</clipPath>
</defs>
</svg>
